<svg width="41" height="34" viewBox="0 0 41 34" fill="none" xmlns="http://www.w3.org/2000/svg">
<path d="M40.25 29.1488V0.160034H0.25V29.1488H15.5597V31.4963H10.8675V33.84H29.6325V31.4963H24.9403V29.1488H40.25ZM37.9062 2.50378V21.3319H2.59375V2.50378H37.9062ZM2.59375 23.6757H37.9062V26.805H2.59375V23.6757ZM22.5966 31.4963H17.9034V29.1488H22.5966V31.4963Z" fill="#FEFEFE"/>
<path d="M26.7678 15.2962V8.53944L20.25 4.98303L13.7323 8.53944V15.2962L20.25 18.8527L26.7678 15.2962ZM21.4219 15.5433V12.8476L24.424 11.2094V13.9052L21.4219 15.5433ZM23.1493 9.23498L20.25 10.817L17.3507 9.23498L20.25 7.65303L23.1493 9.23498ZM16.076 11.2094L19.0782 12.8476V15.5433L16.076 13.9051V11.2094Z" fill="#FEFEFE"/>
</svg>
