<svg width="35" height="34" viewBox="0 0 35 34" fill="none" xmlns="http://www.w3.org/2000/svg">
<path d="M31.145 22C31.6792 21.9999 32.2072 21.8856 32.6936 21.6649C33.1801 21.4441 33.6138 21.122 33.9656 20.7201C34.3175 20.3182 34.5794 19.8457 34.7339 19.3343C34.8884 18.823 34.9318 18.2845 34.8613 17.755L33.0288 4.005C32.9063 3.10516 32.4625 2.27998 31.7792 1.68174C31.096 1.0835 30.2194 0.752563 29.3113 0.75H6.18877C5.28063 0.752563 4.40407 1.0835 3.72082 1.68174C3.03758 2.27998 2.59376 3.10516 2.47127 4.005L0.638771 17.755C0.568258 18.2845 0.611688 18.823 0.766152 19.3343C0.920615 19.8457 1.18255 20.3182 1.53441 20.7201C1.88628 21.122 2.31995 21.4441 2.8064 21.6649C3.29284 21.8856 3.82084 21.9999 4.35502 22H6.54627L7.65002 26.7163L4.25002 31.25C4.11074 31.4357 4.02592 31.6565 4.00507 31.8877C3.98422 32.1189 4.02817 32.3514 4.13199 32.559C4.2358 32.7667 4.39539 32.9413 4.59286 33.0633C4.79033 33.1854 5.01788 33.25 5.25002 33.25H30.25C30.4822 33.25 30.7097 33.1854 30.9072 33.0633C31.1047 32.9413 31.2642 32.7667 31.3681 32.559C31.4719 32.3514 31.5158 32.1189 31.495 31.8877C31.4741 31.6565 31.3893 31.4357 31.25 31.25L27.85 26.7163L28.9538 22H31.145ZM3.41252 19.0725C3.29441 18.9392 3.20664 18.7819 3.15527 18.6114C3.10391 18.4409 3.09017 18.2613 3.11502 18.085L4.94877 4.335C4.98976 4.0352 5.13768 3.76029 5.36531 3.56092C5.59293 3.36155 5.88493 3.25113 6.18752 3.25H29.31C29.6126 3.25113 29.9046 3.36155 30.1322 3.56092C30.3599 3.76029 30.5078 4.0352 30.5488 4.335L32.3825 18.085C32.406 18.2614 32.3916 18.4408 32.3402 18.6111C32.2887 18.7815 32.2015 18.9389 32.0844 19.0729C31.9672 19.2069 31.8228 19.3142 31.6608 19.3879C31.4988 19.4616 31.323 19.4998 31.145 19.5H4.35502C4.17656 19.501 4 19.4633 3.83751 19.3895C3.67502 19.3157 3.52921 19.2075 3.41252 19.0725ZM7.75002 30.75L9.62502 28.25H25.875L27.75 30.75H7.75002ZM25.5088 25.75H9.99127L9.11377 22H26.3863L25.5088 25.75Z" fill="#D0CEDB"/>
<path d="M19 14.5H16.5C16.1685 14.5 15.8505 14.6317 15.6161 14.8661C15.3817 15.1005 15.25 15.4185 15.25 15.75C15.25 16.0815 15.3817 16.3995 15.6161 16.6339C15.8505 16.8683 16.1685 17 16.5 17H19C19.3315 17 19.6495 16.8683 19.8839 16.6339C20.1183 16.3995 20.25 16.0815 20.25 15.75C20.25 15.4185 20.1183 15.1005 19.8839 14.8661C19.6495 14.6317 19.3315 14.5 19 14.5Z" fill="#D0CEDB"/>
</svg>
