<svg width="36" height="40" viewBox="0 0 36 40" fill="none" xmlns="http://www.w3.org/2000/svg">
<path d="M33.559 32.9648V28.2735H31.2134V17.9817H33.559V10.9465H31.1565C30.5651 4.81222 25.3817 0 19.095 0H17.4049C11.1182 0 5.93479 4.81222 5.34337 10.9465H2.94082V17.9817H5.2865V28.2735H2.94082V32.9648H0.595215V40H35.9047V32.9648H33.559ZM28.8695 28.2736H26.4968V17.9817H28.8695V28.2736ZM14.7198 17.9817V28.2735H12.347V17.9817H14.7198ZM17.0636 17.9817H19.4364V28.2735H17.0636V17.9817ZM21.7802 17.9817H24.153V28.2735H21.7802V17.9817ZM17.4049 2.34381H19.095C24.0881 2.34381 28.2182 6.10733 28.7991 10.9465H7.70085C8.28172 6.10733 12.4118 2.34381 17.4049 2.34381ZM5.28462 13.2903H31.2152V15.6379H5.28462V13.2903ZM7.6303 17.9817H10.0031V28.2735H7.6303V17.9817ZM5.28462 30.6174H31.2152V32.9649H5.28462V30.6174ZM33.5609 37.6562H2.93902V35.3086H33.5609V37.6562Z" fill="#D0CEDB"/>
</svg>
