<svg width="35" height="40" viewBox="0 0 35 40" fill="none" xmlns="http://www.w3.org/2000/svg">
<path d="M34.24 25.4002L28.9776 22.8751V14.0609C28.9776 13.3887 28.4327 12.8438 27.7606 12.8438H26.1711V8.60041C26.1711 7.92828 25.6262 7.38337 24.9541 7.38337H22.2531C22.2531 6.11643 22.2531 2.48787 22.2531 1.21704C22.2531 0.544909 21.7082 0 21.036 0H14.464C13.7919 0 13.247 0.544909 13.247 1.21704C13.247 2.48787 13.247 6.11643 13.247 7.38337H10.546C9.87385 7.38337 9.32894 7.92828 9.32894 8.60041V12.8438H7.73949C7.06736 12.8438 6.52245 13.3887 6.52245 14.0609V22.8751L1.26006 25.4002C0.653403 25.6913 0.397987 26.4202 0.690482 27.0264C0.979002 27.6242 6.2857 38.6196 6.61989 39.312C6.8229 39.7327 7.24878 40 7.71596 40H27.7842C28.2513 40 28.6773 39.7327 28.8803 39.312C29.1757 38.6999 34.5835 27.4948 34.8095 27.0266C35.1023 26.4195 34.8463 25.691 34.24 25.4002ZM3.413 27.0673L11.2667 23.2989C13.3618 22.2937 15.5892 21.8162 17.7501 21.8162C19.9617 21.8162 22.1733 22.3104 24.2334 23.2989L32.0872 27.0673L30.9991 29.3218L25.2867 26.5806C22.949 25.4593 20.3429 24.8665 17.7502 24.8665C15.1574 24.8665 12.5513 25.4593 10.2135 26.5807L4.50111 29.3218L3.413 27.0673ZM15.6811 2.43408H19.819V3.65112H15.6811V2.43408ZM15.6811 6.08519H19.819V7.38337H15.6811V6.08519ZM11.763 9.81744C13.0055 9.81744 22.3577 9.81744 23.7371 9.81744V12.8438H11.763V9.81744ZM8.95653 15.2779C9.11336 15.2779 26.3806 15.2779 26.5435 15.2779V21.7069C24.8451 20.8921 22.0426 19.3898 17.7501 19.3898C13.4186 19.3898 10.5509 20.942 8.95661 21.7069V15.2779H8.95653ZM27.0202 37.5659H8.47994L5.55904 31.5139L11.2662 28.7752C15.3867 26.7987 20.1132 26.7985 24.2337 28.7751L29.941 31.5139L27.0202 37.5659Z" fill="#D0CEDB"/>
</svg>
