<svg width="41" height="40" viewBox="0 0 41 40" fill="none" xmlns="http://www.w3.org/2000/svg">
<g clip-path="url(#clip0_337_1800)">
<path d="M13.8789 23.9278L23.879 27.9276C24.1171 28.0239 24.3829 28.0239 24.621 27.9276L34.6211 23.9278C35.0009 23.7766 35.2502 23.4089 35.2499 22.9998V10.9998C35.2502 10.5911 35.0009 10.2234 34.6211 10.0722L24.621 6.07208C24.3833 5.97467 24.1167 5.97467 23.879 6.07208L13.8789 10.0722C13.4991 10.2234 13.2498 10.5911 13.2501 10.9998V22.9998C13.2498 23.4089 13.4991 23.7766 13.8789 23.9278ZM15.25 12.4764L23.2499 15.6778V25.5237L15.25 22.3223V12.4764ZM25.2501 25.5237V15.676L33.25 12.476V22.3223L25.2501 25.5237ZM24.25 8.07599L31.5581 11.0005L24.25 13.9236L16.9419 11.0005L24.25 8.07599Z" fill="#FEFEFE"/>
<path d="M39.25 31.9999H8.24988V1.00012C8.25024 0.734619 8.14478 0.480469 7.95728 0.292603C7.76978 0.105103 7.51526 0 7.25012 0H1.25012C0.984619 0 0.730469 0.105103 0.542603 0.292603C0.355103 0.480469 0.25 0.734619 0.25 1.00012V39C0.25 39.2651 0.355103 39.5197 0.542603 39.7072C0.730469 39.895 0.984619 40.0001 1.25012 40.0001H39.25C39.5151 40.0001 39.7697 39.895 39.9572 39.7072C40.145 39.5197 40.2501 39.2651 40.2501 39V33C40.2501 32.7349 40.145 32.4803 39.9572 32.2928C39.7697 32.105 39.5151 31.9999 39.25 31.9999ZM6.25 1.99988V4.00012H5.24988C4.69763 4.00012 4.25012 4.44763 4.25012 4.99988C4.25012 5.55212 4.69763 6 5.24988 6H6.25V7.99988H5.24988C4.69763 7.99988 4.25012 8.44775 4.25012 9C4.25012 9.55225 4.69763 10.0001 5.24988 10.0001H6.25V12H5.24988C4.69763 12 4.25012 12.4479 4.25012 13.0001C4.25012 13.5524 4.69763 13.9999 5.24988 13.9999H6.25V16.0001H5.24988C4.69763 16.0001 4.25012 16.4476 4.25012 16.9999C4.25012 17.5521 4.69763 18 5.24988 18H6.25V19.9999H5.24988C4.69763 19.9999 4.25012 20.4478 4.25012 21C4.25012 21.5522 4.69763 22.0001 5.24988 22.0001H6.25V24H5.24988C4.69763 24 4.25012 24.4479 4.25012 25.0001C4.25012 25.5524 4.69763 25.9999 5.24988 25.9999H6.25V28.0001H5.24988C4.69763 28.0001 4.25012 28.4476 4.25012 28.9999C4.25012 29.5521 4.69763 30 5.24988 30H6.25V32.5858L2.24988 36.5859V1.99988H6.25ZM38.2499 37.9999H3.66418L7.66394 34.0001H10.2501V34.9999C10.2501 35.5521 10.6976 36 11.2499 36C11.8021 36 12.25 35.5521 12.25 34.9999V34.0001H14.2499V34.9999C14.2499 35.5521 14.6978 36 15.25 36C15.8022 36 16.2501 35.5521 16.2501 34.9999V34.0001H18.25V34.9999C18.25 35.5521 18.6979 36 19.2501 36C19.8024 36 20.2499 35.5521 20.2499 34.9999V34.0001H22.2501V34.9999C22.2501 35.5521 22.6976 36 23.2499 36C23.8021 36 24.25 35.5521 24.25 34.9999V34.0001H26.2499V34.9999C26.2499 35.5521 26.6978 36 27.25 36C27.8022 36 28.2501 35.5521 28.2501 34.9999V34.0001H30.25V34.9999C30.25 35.5521 30.6979 36 31.2501 36C31.8024 36 32.2499 35.5521 32.2499 34.9999V34.0001H34.2501V34.9999C34.2501 35.5521 34.6976 36 35.2499 36C35.8021 36 36.25 35.5521 36.25 34.9999V34.0001H38.2499V37.9999Z" fill="#FEFEFE"/>
</g>
<defs>
<clipPath id="clip0_337_1800">
<rect width="40" height="40" fill="white" transform="translate(0.25)"/>
</clipPath>
</defs>
</svg>
