<svg width="32" height="40" viewBox="0 0 32 40" fill="none" xmlns="http://www.w3.org/2000/svg">
<path d="M31.1214 14.1488L28.0796 11.0048L28.6923 6.67435C28.786 6.01202 28.3376 5.39466 27.6786 5.27925L23.3703 4.524L21.3195 0.658967C21.006 0.0682247 20.28 -0.167543 19.6795 0.126257L15.7505 2.04679L11.8205 0.126257C11.2195 -0.167543 10.4942 0.06839 10.1805 0.659297L8.13056 4.524L3.82176 5.27925C3.1629 5.39466 2.71435 6.01202 2.80809 6.67435L3.42066 11.0048L0.378824 14.1488C-0.0862632 14.6296 -0.0862633 15.3925 0.37899 15.8733L3.42066 19.0169L2.80809 23.3497C2.71451 24.0119 3.1629 24.6292 3.82176 24.7446L7.27015 25.3491V38.7599C7.27015 39.1896 7.4927 39.5888 7.85825 39.8146C8.05731 39.9378 8.28349 39.9999 8.51017 39.9999C8.69964 39.9999 8.88961 39.9566 9.0647 39.869L15.7507 36.5272L22.4357 39.869C22.8199 40.0611 23.2766 40.0406 23.6421 39.8146C24.0077 39.5886 24.2302 39.1895 24.2302 38.7598V25.3493L27.6788 24.7445C28.3376 24.6289 28.786 24.0117 28.6925 23.3494L28.0797 19.0166L31.1214 15.8731C31.5863 15.3926 31.5863 14.6296 31.1214 14.1488ZM16.3051 34.0317C15.9562 33.8573 15.5453 33.8571 15.1962 34.0317L9.75018 36.7538V28.5523L10.1807 29.3639C10.4942 29.955 11.2203 30.1906 11.8208 29.8966L15.7507 27.9748L19.6794 29.8966C19.8546 29.9823 20.0405 30.023 20.2235 30.023C20.6682 30.023 21.0975 29.7826 21.3197 29.3641L21.7502 28.5531V36.7538L16.3051 34.0317ZM25.8756 17.728C25.6096 18.0029 25.4854 18.3852 25.539 18.764L26.0686 22.509L22.3451 23.1619C21.9684 23.2279 21.6432 23.4641 21.4638 23.8019L19.6913 27.1417L16.2955 25.4806C16.1235 25.3966 15.937 25.3544 15.7505 25.3544C15.564 25.3544 15.3775 25.3964 15.2057 25.4806L11.8091 27.1417L10.0372 23.8021C9.85798 23.4641 9.53276 23.2279 9.15597 23.1619L5.43163 22.509L5.96103 18.7638C6.0146 18.3852 5.89043 18.0028 5.62441 17.728L2.99542 15.0109L5.62457 12.2934C5.89043 12.0185 6.0146 11.6362 5.96103 11.2576L5.43163 7.51491L9.15597 6.86201C9.53276 6.79604 9.85798 6.55961 10.0374 6.22166L11.8093 2.88107L15.2061 4.54103C15.5496 4.70901 15.9516 4.70901 16.2951 4.54103L19.691 2.88107L21.4638 6.22183C21.6431 6.55961 21.9683 6.79587 22.3451 6.86201L26.0686 7.51475L25.539 11.2574C25.4854 11.6362 25.6096 12.0185 25.8755 12.2934L28.5046 15.0109L25.8756 17.728Z" fill="#FEFEFE"/>
<path d="M15.7505 6.53174C11.0744 6.53174 7.27002 10.3354 7.27002 15.0109C7.27002 19.6874 11.0744 23.492 15.7505 23.492C20.4261 23.492 24.2299 19.6874 24.2299 15.0109C24.2299 10.3354 20.4261 6.53174 15.7505 6.53174ZM15.7505 21.0119C12.4419 21.0119 9.75005 18.32 9.75005 15.0109C9.75005 11.7029 12.4419 9.01176 15.7505 9.01176C19.0586 9.01176 21.7499 11.7029 21.7499 15.0109C21.7499 18.32 19.0586 21.0119 15.7505 21.0119Z" fill="#FEFEFE"/>
<path d="M18.2782 11.8651L14.6152 15.5272L13.2213 14.135C12.7369 13.6509 11.9517 13.6514 11.4676 14.1359C10.9837 14.6205 10.9842 15.4056 11.4688 15.8895L13.7393 18.1576C13.9814 18.3994 14.2985 18.5203 14.6156 18.5203C14.9329 18.5203 15.2503 18.3993 15.4924 18.1572L20.0316 13.6189C20.5161 13.1348 20.5161 12.3497 20.0318 11.8652C19.5477 11.381 18.7625 11.3808 18.2782 11.8651Z" fill="#FEFEFE"/>
</svg>
