<svg width="41" height="40" viewBox="0 0 41 40" fill="none" xmlns="http://www.w3.org/2000/svg">
<g clip-path="url(#clip0_337_1814)">
<path d="M39.1388 0H1.36125C1.06624 0 0.783854 0.116781 0.575114 0.325114C0.366781 0.533854 0.25 0.816243 0.25 1.11125V38.8888C0.25 39.1838 0.366781 39.4661 0.575114 39.6749C0.783854 39.8832 1.06624 40 1.36125 40H39.1388C39.4338 40 39.7161 39.8832 39.9249 39.6749C40.1332 39.4661 40.25 39.1838 40.25 38.8888V1.11125C40.25 0.816243 40.1332 0.533854 39.9249 0.325114C39.7161 0.116781 39.4338 0 39.1388 0ZM38.0279 8.88875H23.5833V6.66667H25.8054C27.6458 6.66463 29.1367 5.17334 29.1388 3.33333V2.22209H38.0279V8.88875ZM20.25 11.1112C19.6364 11.1108 19.1392 10.6136 19.1388 10V6.66667H21.3612V10C21.3608 10.6136 20.8636 11.1108 20.25 11.1112ZM26.9167 2.22209V3.33333C26.9163 3.94694 26.419 4.44417 25.8054 4.44458H14.6946C14.081 4.44417 13.5837 3.94694 13.5833 3.33333V2.22209H26.9167ZM11.3612 2.22209V3.33333C11.3633 5.17334 12.8542 6.66463 14.6946 6.66667H16.9167V8.88875H2.47209V2.22209H11.3612ZM2.47209 37.7779V11.1112H17.1213C17.457 12.0524 18.1976 12.793 19.1388 13.1287V14.4446C19.1388 15.0582 19.6364 15.5554 20.25 15.5554C20.8636 15.5554 21.3612 15.0582 21.3612 14.4446V13.1287C22.3024 12.793 23.043 12.0524 23.3787 11.1112H38.0279V37.7779H2.47209Z" fill="#FEFEFE"/>
<path d="M28.465 21.2011L20.6875 17.8677C20.408 17.7485 20.0922 17.7485 19.8127 17.8677L12.0352 21.2011C11.6262 21.3756 11.3609 21.7776 11.3613 22.222V31.1111C11.3609 31.5555 11.6262 31.9575 12.0352 32.1321L19.8127 35.4654C20.0918 35.5854 20.4084 35.5854 20.6875 35.4654L28.465 32.1321C28.8739 31.9575 29.1392 31.5555 29.1388 31.1111V22.222C29.1392 21.7776 28.8739 21.3756 28.465 21.2011ZM20.2501 20.0976L25.2078 22.222L20.2501 24.3468L15.2924 22.222L20.2501 20.0976ZM13.5834 23.907L19.1388 26.2877V32.7595L13.5834 30.3787V23.907ZM21.3613 32.7595V26.2877L26.9167 23.907V30.3787L21.3613 32.7595Z" fill="#FEFEFE"/>
<path d="M32.4722 6.66642H34.6947C35.3083 6.66642 35.8055 6.16878 35.8055 5.55518C35.8055 4.94157 35.3083 4.44434 34.6947 4.44434H32.4722C31.8586 4.44434 31.3613 4.94157 31.3613 5.55518C31.3613 6.16878 31.8586 6.66642 32.4722 6.66642Z" fill="#FEFEFE"/>
<path d="M5.80542 6.66642H8.02791C8.64152 6.66642 9.13875 6.16878 9.13875 5.55518C9.13875 4.94157 8.64152 4.44434 8.02791 4.44434H5.80542C5.19181 4.44434 4.69458 4.94157 4.69458 5.55518C4.69458 6.16878 5.19181 6.66642 5.80542 6.66642Z" fill="#FEFEFE"/>
</g>
<defs>
<clipPath id="clip0_337_1814">
<rect width="40" height="40" fill="white" transform="translate(0.25)"/>
</clipPath>
</defs>
</svg>
