<svg width="41" height="40" viewBox="0 0 41 40" fill="none" xmlns="http://www.w3.org/2000/svg">
<g clip-path="url(#clip0_337_1822)">
<path d="M29.6646 20C29.6646 20.6473 30.1895 21.1719 30.8364 21.1719C31.4837 21.1719 32.0083 20.6473 32.0083 20C32.0083 19.3527 31.4837 18.8281 30.8364 18.8281C30.1895 18.8281 29.6646 19.3527 29.6646 20Z" fill="#FEFEFE"/>
<path d="M3.0611 14.7112C4.4649 14.154 6.04144 14.504 7.07751 15.6032C7.23193 15.7671 7.48096 16.0247 7.73486 16.2859C9.89612 13.9889 12.9616 12.5518 16.3567 12.5518H27.6561C29.261 10.2071 32.1755 9.09629 34.9376 9.78659L36.0967 10.0765C36.3982 10.1519 36.6573 10.3438 36.8172 10.6103C36.9774 10.877 37.0247 11.1959 36.9493 11.4977L35.6942 16.5185C35.6844 16.5581 35.6719 16.5963 35.6584 16.6338C36.3158 17.6791 36.7418 18.8497 36.9066 20.0832H37.0677C38.0513 20.0832 38.976 20.4662 39.6715 21.1617C40.367 21.8572 40.75 22.7819 40.75 23.7655V27.531C40.75 28.5146 40.367 29.4396 39.6715 30.1348C38.976 30.8306 38.0513 31.2136 37.0677 31.2136H36.382C35.8757 31.8301 35.3182 32.3965 34.7188 32.9101L35.3057 34.327C35.8312 35.5956 35.6896 37.0348 34.9269 38.1765C34.164 39.3181 32.8887 39.9999 31.5148 39.9999C29.8912 39.9999 28.4334 38.9727 27.8875 37.4438L27.419 36.1324C26.8749 36.1989 26.325 36.2343 25.7714 36.2343H16.3567C15.5925 36.2343 14.8448 36.1605 14.1207 36.0216L13.6129 37.4438C13.0666 38.9727 11.6091 39.9999 9.98462 39.9999C8.61133 39.9999 7.336 39.3181 6.57306 38.1765C5.81042 37.0345 5.66882 35.5956 6.19434 34.3267L7.11536 32.1035C7.14343 32.0354 7.17792 31.9723 7.21667 31.9128C5.52997 29.8662 4.51556 27.246 4.51556 24.3932C4.51556 22.1087 5.1665 19.974 6.29169 18.1631C5.95996 17.8231 5.58582 17.438 5.37189 17.2106C4.99896 16.8151 4.43134 16.6888 3.92596 16.8896C3.42029 17.0901 3.09375 17.571 3.09375 18.1148V18.117C3.09375 18.7643 2.56915 19.2879 1.92188 19.2879C1.2749 19.2879 0.75 18.7621 0.75 18.1148C0.75 16.6045 1.65729 15.2685 3.0611 14.7112ZM34.3691 12.0605C33.0245 11.7242 31.6246 12.0391 30.5611 12.8521C31.7339 13.1682 32.8279 13.7285 33.781 14.5083L34.3914 12.066L34.3691 12.0605ZM30.0945 36.6555C30.3084 37.2539 30.8791 37.6562 31.5154 37.6562C32.1044 37.6562 32.6512 37.3638 32.9781 36.8743C33.3052 36.3848 33.366 35.7677 33.1407 35.2239L32.7623 34.3105C31.8105 34.8733 30.793 35.3213 29.7332 35.6429L30.0945 36.6555ZM8.52191 36.8743C8.84906 37.3638 9.39563 37.6562 9.98523 37.6562C10.6209 37.6562 11.1916 37.2539 11.4055 36.6555L11.8712 35.3509C10.8339 34.9248 9.86987 34.3557 9.00409 33.6678L8.35956 35.2236C8.13403 35.7677 8.19476 36.3848 8.52191 36.8743ZM16.3567 33.8906H25.7714C29.3315 33.8906 32.7318 32.1917 34.8699 29.3453C35.0893 29.0481 35.4384 28.8695 35.8126 28.8695H37.0677C37.4254 28.8695 37.7614 28.7304 38.0144 28.4777C38.2671 28.2247 38.4062 27.8887 38.4062 27.531V23.7655C38.4062 23.4078 38.2671 23.0718 38.0141 22.8191C37.7614 22.5661 37.4251 22.427 37.0677 22.427H35.8126C35.1653 22.427 34.6407 21.9012 34.6407 21.2539C34.6407 19.5556 33.9794 17.9589 32.7785 16.758C31.5776 15.5572 29.9807 14.8955 28.2827 14.8955H16.357C11.1199 14.8955 6.85962 19.1561 6.85962 24.3932C6.85931 29.63 11.1199 33.8906 16.3567 33.8906Z" fill="#FEFEFE"/>
<path d="M20.1226 11.1304C17.0538 11.1304 14.5574 8.63373 14.5574 5.56519C14.5574 2.49664 17.0538 0 20.1226 0C23.1912 0 25.6875 2.49634 25.6875 5.56519C25.6875 8.63373 23.1912 11.1304 20.1226 11.1304ZM20.1226 2.34375C18.3462 2.34375 16.9012 3.78876 16.9012 5.56519C16.9012 7.34131 18.3462 8.78632 20.1226 8.78632C21.8987 8.78632 23.3438 7.34131 23.3438 5.56519C23.3438 3.78876 21.8987 2.34375 20.1226 2.34375Z" fill="#FEFEFE"/>
<path d="M15.7293 16.3179H23.8882C24.5352 16.3179 25.0601 16.8425 25.0601 17.4897C25.0601 18.137 24.5352 18.6616 23.8882 18.6616H15.7293C15.082 18.6616 14.5574 18.137 14.5574 17.4897C14.5574 16.8425 15.082 16.3179 15.7293 16.3179Z" fill="#FEFEFE"/>
</g>
<defs>
<clipPath id="clip0_337_1822">
<rect width="40" height="40" fill="white" transform="matrix(-1 0 0 1 40.75 0)"/>
</clipPath>
</defs>
</svg>
