<svg width="41" height="40" viewBox="0 0 41 40" fill="none" xmlns="http://www.w3.org/2000/svg">
<g clip-path="url(#clip0_337_1830)">
<path d="M34.3906 11.7188H30.875V5.85938C30.875 2.62848 28.2465 0 25.0156 0H6.10938C2.87848 0 0.25 2.62848 0.25 5.85938V17.5781C0.25 20.4077 2.2663 22.7753 4.9375 23.3197V26.9531C4.9375 27.3853 5.17554 27.7823 5.5564 27.9865C5.93665 28.1897 6.39899 28.1683 6.7594 27.9282L9.625 26.0178V29.2969C9.625 32.5278 12.2535 35.1562 15.4844 35.1562H26.9947L33.726 39.7931C34.0848 40.0406 34.5508 40.0677 34.9357 39.8654C35.3211 39.6631 35.5625 39.2636 35.5625 38.8281V35.0385C38.2337 34.494 40.25 32.1265 40.25 29.2969V17.5781C40.25 14.3472 37.6215 11.7188 34.3906 11.7188ZM6.10938 21.0938C4.1709 21.0938 2.59375 19.5166 2.59375 17.5781V5.85938C2.59375 3.9209 4.1709 2.34375 6.10938 2.34375H25.0156C26.9541 2.34375 28.5312 3.9209 28.5312 5.85938V17.5781C28.5312 19.5166 26.9541 21.0938 25.0156 21.0938H13.1406C12.9093 21.0938 12.6832 21.1621 12.4906 21.2906L7.28125 24.7635V22.2656C7.28125 21.6183 6.75665 21.0938 6.10938 21.0938ZM37.9062 29.2969C37.9062 31.2354 36.3291 32.8125 34.3906 32.8125C33.7433 32.8125 33.2188 33.3371 33.2188 33.9844V36.5979L28.0244 33.0194C27.8287 32.8845 27.5968 32.8125 27.3594 32.8125H15.4844C13.5459 32.8125 11.9688 31.2354 11.9688 29.2969V24.4553L13.4955 23.4375H25.0156C28.2465 23.4375 30.875 20.809 30.875 17.5781V14.0625H34.3906C36.3291 14.0625 37.9062 15.6396 37.9062 17.5781V29.2969Z" fill="#FEFEFE"/>
<path d="M8.45312 8.20312H17.9844C18.6317 8.20312 19.1562 7.67853 19.1562 7.03125C19.1562 6.38397 18.6317 5.85938 17.9844 5.85938H8.45312C7.80585 5.85938 7.28125 6.38397 7.28125 7.03125C7.28125 7.67853 7.80585 8.20312 8.45312 8.20312Z" fill="#FEFEFE"/>
<path d="M8.45312 12.8906H17.9844C18.6317 12.8906 19.1562 12.366 19.1562 11.7188C19.1562 11.0715 18.6317 10.5469 17.9844 10.5469H8.45312C7.80585 10.5469 7.28125 11.0715 7.28125 11.7188C7.28125 12.366 7.80585 12.8906 8.45312 12.8906Z" fill="#FEFEFE"/>
<path d="M8.45312 17.5781H22.6719C23.3192 17.5781 23.8438 17.0535 23.8438 16.4062C23.8438 15.759 23.3192 15.2344 22.6719 15.2344H8.45312C7.80585 15.2344 7.28125 15.759 7.28125 16.4062C7.28125 17.0535 7.80585 17.5781 8.45312 17.5781Z" fill="#FEFEFE"/>
<path d="M23.8438 7.03125C23.8438 7.67853 23.3192 8.20312 22.6719 8.20312C22.0246 8.20312 21.5 7.67853 21.5 7.03125C21.5 6.38397 22.0246 5.85938 22.6719 5.85938C23.3192 5.85938 23.8438 6.38397 23.8438 7.03125Z" fill="#FEFEFE"/>
<path d="M23.8438 11.7188C23.8438 12.366 23.3192 12.8906 22.6719 12.8906C22.0246 12.8906 21.5 12.366 21.5 11.7188C21.5 11.0715 22.0246 10.5469 22.6719 10.5469C23.3192 10.5469 23.8438 11.0715 23.8438 11.7188Z" fill="#FEFEFE"/>
<path d="M32.0469 26.9531H17.9844C17.3371 26.9531 16.8125 27.4777 16.8125 28.125C16.8125 28.7723 17.3371 29.2969 17.9844 29.2969H32.0469C32.6942 29.2969 33.2188 28.7723 33.2188 28.125C33.2188 27.4777 32.6942 26.9531 32.0469 26.9531Z" fill="#FEFEFE"/>
</g>
<defs>
<clipPath id="clip0_337_1830">
<rect width="40" height="40" fill="white" transform="translate(0.25)"/>
</clipPath>
</defs>
</svg>
