<svg width="41" height="40" viewBox="0 0 41 40" fill="none" xmlns="http://www.w3.org/2000/svg">
<g clip-path="url(#clip0_337_1841)">
<path d="M17.2542 26.9133L24.2539 30.9197C24.5619 31.0943 24.9384 31.0943 25.2463 30.9197L32.2461 26.9133C32.5577 26.7343 32.7496 26.4024 32.75 26.0429V18.0305C32.75 17.6711 32.5577 17.3391 32.2461 17.1609L25.2463 13.1545C24.9387 12.9784 24.5615 12.9784 24.2539 13.1545L17.2542 17.1609C16.9425 17.3391 16.7502 17.6711 16.7502 18.0305V26.0429C16.7506 26.4024 16.9425 26.7343 17.2542 26.9133ZM18.7501 19.7562L23.75 22.6175V28.3229L18.7501 25.4619V19.7562ZM25.7502 28.3229V22.619L30.7501 19.7566V25.4619L25.7502 28.3229ZM24.7501 15.1773L29.735 18.0305L24.7501 20.8834L19.7653 18.0305L24.7501 15.1773Z" fill="#FEFEFE"/>
<path d="M39.75 6.0118H10.6494C10.1371 3.49163 7.80212 1.77031 5.24744 2.02853C2.69275 2.28711 0.748902 4.4416 0.75 7.01312V33.0541C0.75293 35.8185 2.98975 38.0588 5.74988 38.0618H39.75C40.0151 38.0618 40.2697 37.9565 40.4572 37.7687C40.645 37.5805 40.7501 37.326 40.7501 37.0601V7.01312C40.7501 6.74757 40.645 6.49266 40.4572 6.30486C40.2697 6.11707 40.0151 6.01144 39.75 6.0118ZM2.74988 7.01312C2.74988 5.35379 4.09314 4.00843 5.74988 4.00843C7.40698 4.00843 8.74988 5.35379 8.74988 7.01312V27.0465C6.94775 25.7866 4.55237 25.7866 2.74988 27.0465V7.01312ZM38.7499 36.0588H5.74988C4.09387 36.0569 2.75171 34.7127 2.74988 33.0541V31.0507C2.74988 29.3914 4.09314 28.046 5.74988 28.046C7.40698 28.046 8.74988 29.3914 8.74988 31.0507C8.74988 31.6038 9.19775 32.0524 9.75 32.0524C10.3022 32.0524 10.7501 31.6038 10.7501 31.0507V8.01481H38.7499V36.0588Z" fill="#FEFEFE"/>
</g>
<defs>
<clipPath id="clip0_337_1841">
<rect width="40" height="40" fill="white" transform="translate(0.75)"/>
</clipPath>
</defs>
</svg>
