<svg width="41" height="40" viewBox="0 0 41 40" fill="none" xmlns="http://www.w3.org/2000/svg">
<g clip-path="url(#clip0_337_1847)">
<path d="M18.5043 27.9303C18.7259 28.1515 19.0262 28.276 19.3396 28.276C19.6527 28.276 19.953 28.1518 20.1746 27.9303L24.3912 23.7136C24.8526 23.2522 24.8526 22.5045 24.3912 22.0431C23.9301 21.582 23.1821 21.582 22.721 22.0431L19.3396 25.4245L17.7979 23.8827C17.3364 23.4216 16.5888 23.4216 16.1273 23.8827C15.6662 24.3438 15.6662 25.0918 16.1273 25.5532L18.5043 27.9303Z" fill="#FEFEFE"/>
<path d="M20.2595 34.363C25.4295 34.363 29.6354 30.1567 29.6354 24.9868C29.6354 19.8168 25.4295 15.6108 20.2595 15.6108C15.0892 15.6108 10.8833 19.8168 10.8833 24.9868C10.8833 30.1567 15.0895 34.363 20.2595 34.363ZM20.2595 17.9729C24.127 17.9729 27.2734 21.1193 27.2734 24.9868C27.2734 28.8542 24.127 32.0009 20.2595 32.0009C16.392 32.0009 13.2454 28.8542 13.2454 24.9868C13.2454 21.1193 16.392 17.9729 20.2595 17.9729Z" fill="#FEFEFE"/>
<path d="M35.98 2.51495H33.8257V1.18103C33.8257 0.52887 33.2969 0 32.6447 0C31.9926 0 31.4637 0.52887 31.4637 1.18103V2.51495H29.1428V1.18103C29.1428 0.52887 28.614 0 27.9615 0C27.3093 0 26.7805 0.52887 26.7805 1.18103V2.51495H13.7385V1.18103C13.7385 0.52887 13.2096 0 12.5571 0C11.905 0 11.3761 0.52887 11.3761 1.18103V2.51495H9.05524V1.18103C9.05524 0.52887 8.52637 0 7.8739 0C7.22174 0 6.69287 0.52887 6.69287 1.18103V2.51495H4.53833C2.43231 2.51495 0.71875 4.22852 0.71875 6.33484V36.1804C0.71875 38.2864 2.43231 40 4.53833 40H35.98C38.0863 40 39.7996 38.2864 39.7996 36.1804V6.33484C39.7996 4.22852 38.086 2.51495 35.98 2.51495ZM37.4372 36.1804C37.4372 36.9839 36.7835 37.6379 35.98 37.6379H4.53833C3.7348 37.6379 3.08081 36.9839 3.08081 36.1804V12.3358H37.4372V36.1804ZM3.08081 6.33484C3.08081 5.53101 3.7348 4.87732 4.53833 4.87732H6.69287V6.21124C6.69287 6.8634 7.22174 7.39227 7.87421 7.39227C8.52637 7.39227 9.05524 6.8634 9.05524 6.21124V4.87732H11.3761V6.21124C11.3761 6.8634 11.905 7.39227 12.5574 7.39227C13.2096 7.39227 13.7385 6.8634 13.7385 6.21124V4.87732H26.7805V6.21124C26.7805 6.8634 27.3093 7.39227 27.9618 7.39227C28.614 7.39227 29.1428 6.8634 29.1428 6.21124V4.87732H31.4637V6.21124C31.4637 6.8634 31.9926 7.39227 32.6447 7.39227C33.2972 7.39227 33.826 6.8634 33.826 6.21124V4.87732H35.98C36.7835 4.87732 37.4375 5.53101 37.4375 6.33484V9.97345H3.08081V6.33484Z" fill="#FEFEFE"/>
</g>
<defs>
<clipPath id="clip0_337_1847">
<rect width="40" height="40" fill="white" transform="translate(0.25)"/>
</clipPath>
</defs>
</svg>
