<svg width="40" height="40" viewBox="0 0 40 40" fill="none" xmlns="http://www.w3.org/2000/svg">
<path d="M34.5904 6.43883V0H4.90946V6.43883L0.0327148 10.8514V34.4294H13.6826L19.7499 40L25.8172 34.4294H39.4671V10.8514L34.5904 6.43883ZM28.8172 2.41435L21.8452 6.37799H17.6545L10.6826 2.41435H28.8172ZM32.1759 3.28207V6.43891L26.4693 11.6024L23.9168 7.9775L32.1759 3.28207ZM23.3348 11.3444L21.4583 14.0094H18.0415L16.165 11.3444L17.962 8.79234H21.5378L23.3348 11.3444ZM7.32373 3.28207L15.5829 7.9775L13.0304 11.6024L7.32373 6.43891V3.28207ZM13.1447 32.0149H2.44707V11.9227L6.11664 8.60249L13.4336 15.2233L14.6885 13.4411L16.1372 15.4984L13.1447 32.0149ZM19.7499 36.7224L15.4592 32.7829L18.4233 16.4238H21.0767L24.0408 32.7829L19.7499 36.7224ZM26.3552 32.0151L23.3626 15.4985L24.8113 13.4413L26.0662 15.2234L33.3832 8.60265L37.0528 11.9229V32.0151H26.3552Z" fill="#FEFEFE"/>
</svg>
