<svg width="167" height="80" viewBox="0 0 167 80" fill="none" xmlns="http://www.w3.org/2000/svg">
<path d="M44.3704 14.4498C42.6726 7.02415 38.4286 0.986086 37.8565 0C36.934 1.38549 33.5573 6.71701 31.8225 12.6331C29.9586 19.2263 29.6821 25.0775 30.3278 30.8402C30.9738 36.6025 33.3911 42.5186 33.3911 42.5186C34.6827 45.6283 36.6203 48.9563 37.8752 50.5916C39.7203 48.1868 43.9644 41.009 45.2931 31.6409C46.031 26.4356 46.0495 21.8753 44.3704 14.4498ZM37.8565 48.7419C37.0263 47.1712 35.7346 44.1799 35.6054 39.5587C35.5684 35.093 37.3583 31.271 37.875 30.4701C38.3364 31.271 39.8863 34.599 40.0708 39.1591C40.1815 43.6267 38.7054 47.1398 37.8565 48.7419ZM43.8724 27.0513C43.8169 29.8836 43.4849 32.873 43.042 34.6603C43.208 31.58 42.839 27.2365 42.1195 23.8455C41.4181 20.4565 39.4253 14.7883 37.8199 12.1688C36.3436 14.6643 34.5352 19.5648 33.5758 23.8139C32.6346 28.0688 32.5978 33.2116 32.5978 34.7544C32.3394 33.454 31.7119 28.8181 31.8966 24.1544C32.0441 20.3084 32.9298 16.3588 33.428 14.5421C35.3104 8.47263 37.4324 4.59148 37.8197 3.97552C38.2259 4.59148 40.9014 9.36624 42.2855 14.3887C43.6694 19.4093 43.9462 24.2155 43.8724 27.0513Z" fill="#FEFEFE"/>
<path d="M40.7166 52.3214H27.8552V60.9735C27.8737 60.9623 27.892 60.9495 27.892 60.9383C30.9182 57.9006 35.8453 57.9006 38.8713 60.9383C41.8976 63.9777 41.8976 68.9041 38.8713 71.9416C38.853 71.9546 38.853 71.9658 38.8345 71.9767V71.9805C38.8161 71.9953 38.7976 72.0064 38.7791 72.0212C35.7713 75.0294 31.8041 76.5349 27.8552 76.5349C23.888 76.5349 19.9206 75.0182 16.8944 71.9841C11.5613 66.6362 10.9341 58.3632 14.9938 52.3214C15.5472 51.5055 16.1747 50.7286 16.8944 50.0071C19.9206 46.9715 23.8878 45.4546 27.8552 45.4546V24.6465C12.6132 24.6465 0.25 37.0373 0.25 52.3214C0.25 67.6037 12.6132 79.9943 27.8552 79.9943C35.8083 79.9943 42.9679 76.6238 48.0055 71.235V52.3214H40.7166ZM64.3177 75.0589C64.3177 76.9956 64.0777 79.9998 60.2028 79.9998H55.6264C51.7697 79.9998 51.53 76.9956 51.53 75.0589V57.2699C51.53 55.3312 51.7697 52.3268 55.6264 52.3268H60.2028C64.0777 52.3268 64.3177 55.3312 64.3177 57.2699V61.1824H58.7819V56.6706C58.7819 56.197 58.4312 55.7622 57.9145 55.7622C57.6008 55.7622 57.0473 55.9581 57.0473 56.6706V75.5417C57.0473 76.252 57.6008 76.4498 57.9145 76.4498C58.4314 76.4498 58.7819 76.0152 58.7819 75.5417V69.4849H57.9515V66.44H64.3177V75.0589ZM72.6213 69.6033L73.5624 55.7734H73.8761L74.8356 69.6033H72.6213ZM66.5135 79.9998H71.9201L72.4183 72.6483H75.0201L75.537 79.9998H80.9435L78.0648 52.3268H69.3922L66.5135 79.9998ZM82.9916 76.5221L88.2877 55.7734H83.5451V52.327H93.9527V55.766L88.6752 76.4517H94.2847V79.9998H82.9916V76.5219M102.404 67.1373V55.7584H103.105C103.714 55.7584 104.138 56.271 104.138 57.1425V65.7537C104.138 66.6231 103.714 67.1373 103.105 67.1373H102.404ZM96.868 80H102.404V70.5912H105.559C109.416 70.5912 109.656 67.5868 109.656 65.6501V57.2699C109.656 55.3312 109.416 52.3268 105.559 52.3268H96.868V80ZM118.015 66.3105V55.7603H118.734C119.325 55.7603 119.749 56.2729 119.749 57.1422V64.9267C119.749 65.7963 119.325 66.3105 118.734 66.3105H118.015ZM125.986 79.9998L123.274 69.2074C125.23 68.4175 125.267 66.5974 125.267 65.8481V57.2699C125.267 55.3312 125.045 52.3268 121.17 52.3268H112.497V79.9998H118.015V69.7606H118.421L120.303 79.9998H125.986ZM136.209 75.5417C136.209 76.0169 135.859 76.4517 135.342 76.4517C135.028 76.4517 134.475 76.2537 134.475 75.5417V56.6706C134.475 55.9584 135.028 55.7622 135.342 55.7622C135.859 55.7622 136.209 56.197 136.209 56.6706V75.5417ZM128.957 75.0589C128.957 76.9956 129.197 79.9998 133.072 79.9998H137.63C141.505 79.9998 141.745 76.9956 141.745 75.0589V57.2699C141.745 55.3312 141.505 52.3268 137.63 52.3268H133.072C129.197 52.3268 128.957 55.3312 128.957 57.2699V75.0589ZM159.072 52.3268H166.25V79.9998H160.733V62.6438H160.53L157.688 79.9998H153.278L150.436 62.6438H150.233V79.9998H144.716V52.3268H151.894L155.474 71.7768L159.072 52.3268Z" fill="#FEFEFE"/>
</svg>
