<svg width="26" height="28" viewBox="0 0 26 28" fill="none" xmlns="http://www.w3.org/2000/svg">
<path d="M20.0001 28H6.00008C4.45355 27.9981 2.9709 27.383 1.87734 26.2894C0.783777 25.1958 0.168601 23.7132 0.166748 22.1667V5.83333C0.168601 4.2868 0.783777 2.80414 1.87734 1.71058C2.9709 0.617021 4.45355 0.00184487 6.00008 -7.62939e-06L20.0001 -7.62939e-06C21.5466 0.00184487 23.0293 0.617021 24.1228 1.71058C25.2164 2.80414 25.8316 4.2868 25.8334 5.83333V22.1667C25.8316 23.7132 25.2164 25.1958 24.1228 26.2894C23.0293 27.383 21.5466 27.9981 20.0001 28V28ZM6.00008 2.33333C5.07182 2.33333 4.18159 2.70207 3.52521 3.35845C2.86883 4.01483 2.50008 4.90507 2.50008 5.83333V22.1667C2.50008 23.0949 2.86883 23.9852 3.52521 24.6415C4.18159 25.2979 5.07182 25.6667 6.00008 25.6667H20.0001C20.9283 25.6667 21.8186 25.2979 22.475 24.6415C23.1313 23.9852 23.5001 23.0949 23.5001 22.1667V5.83333C23.5001 4.90507 23.1313 4.01483 22.475 3.35845C21.8186 2.70207 20.9283 2.33333 20.0001 2.33333H6.00008ZM17.6667 11.6667H8.33342C7.40516 11.6667 6.51492 11.2979 5.85854 10.6415C5.20216 9.98516 4.83342 9.09492 4.83342 8.16666C4.83342 7.2384 5.20216 6.34816 5.85854 5.69179C6.51492 5.03541 7.40516 4.66666 8.33342 4.66666H17.6667C18.595 4.66666 19.4852 5.03541 20.1416 5.69179C20.798 6.34816 21.1667 7.2384 21.1667 8.16666C21.1667 9.09492 20.798 9.98516 20.1416 10.6415C19.4852 11.2979 18.595 11.6667 17.6667 11.6667V11.6667ZM8.33342 6.99999C8.024 6.99999 7.72725 7.12291 7.50846 7.3417C7.28967 7.56049 7.16675 7.85724 7.16675 8.16666C7.16675 8.47608 7.28967 8.77282 7.50846 8.99162C7.72725 9.21041 8.024 9.33333 8.33342 9.33333H17.6667C17.9762 9.33333 18.2729 9.21041 18.4917 8.99162C18.7105 8.77282 18.8334 8.47608 18.8334 8.16666C18.8334 7.85724 18.7105 7.56049 18.4917 7.3417C18.2729 7.12291 17.9762 6.99999 17.6667 6.99999H8.33342ZM6.00008 15.1667C5.76934 15.1667 5.54377 15.2351 5.35192 15.3633C5.16006 15.4915 5.01052 15.6737 4.92222 15.8869C4.83392 16.1 4.81082 16.3346 4.85583 16.5609C4.90085 16.7872 5.01196 16.9951 5.17512 17.1583C5.33829 17.3214 5.54617 17.4326 5.77248 17.4776C5.99879 17.5226 6.23337 17.4995 6.44655 17.4112C6.65973 17.3229 6.84193 17.1733 6.97013 16.9815C7.09832 16.7896 7.16675 16.5641 7.16675 16.3333C7.16675 16.0239 7.04383 15.7272 6.82504 15.5084C6.60625 15.2896 6.3095 15.1667 6.00008 15.1667ZM10.6667 15.1667C10.436 15.1667 10.2104 15.2351 10.0186 15.3633C9.82673 15.4915 9.67719 15.6737 9.58889 15.8869C9.50059 16.1 9.47748 16.3346 9.5225 16.5609C9.56752 16.7872 9.67863 16.9951 9.84179 17.1583C10.005 17.3214 10.2128 17.4326 10.4391 17.4776C10.6655 17.5226 10.9 17.4995 11.1132 17.4112C11.3264 17.3229 11.5086 17.1733 11.6368 16.9815C11.765 16.7896 11.8334 16.5641 11.8334 16.3333C11.8334 16.0239 11.7105 15.7272 11.4917 15.5084C11.2729 15.2896 10.9762 15.1667 10.6667 15.1667ZM15.3334 15.1667C15.1027 15.1667 14.8771 15.2351 14.6852 15.3633C14.4934 15.4915 14.3439 15.6737 14.2556 15.8869C14.1673 16.1 14.1441 16.3346 14.1892 16.5609C14.2342 16.7872 14.3453 16.9951 14.5085 17.1583C14.6716 17.3214 14.8795 17.4326 15.1058 17.4776C15.3321 17.5226 15.5667 17.4995 15.7799 17.4112C15.9931 17.3229 16.1753 17.1733 16.3035 16.9815C16.4317 16.7896 16.5001 16.5641 16.5001 16.3333C16.5001 16.0239 16.3772 15.7272 16.1584 15.5084C15.9396 15.2896 15.6428 15.1667 15.3334 15.1667ZM6.00008 19.8333C5.76934 19.8333 5.54377 19.9017 5.35192 20.0299C5.16006 20.1581 5.01052 20.3403 4.92222 20.5535C4.83392 20.7667 4.81082 21.0013 4.85583 21.2276C4.90085 21.4539 5.01196 21.6618 5.17512 21.825C5.33829 21.9881 5.54617 22.0992 5.77248 22.1442C5.99879 22.1893 6.23337 22.1662 6.44655 22.0779C6.65973 21.9895 6.84193 21.84 6.97013 21.6482C7.09832 21.4563 7.16675 21.2307 7.16675 21C7.16675 20.6906 7.04383 20.3938 6.82504 20.175C6.60625 19.9562 6.3095 19.8333 6.00008 19.8333ZM10.6667 19.8333C10.436 19.8333 10.2104 19.9017 10.0186 20.0299C9.82673 20.1581 9.67719 20.3403 9.58889 20.5535C9.50059 20.7667 9.47748 21.0013 9.5225 21.2276C9.56752 21.4539 9.67863 21.6618 9.84179 21.825C10.005 21.9881 10.2128 22.0992 10.4391 22.1442C10.6655 22.1893 10.9 22.1662 11.1132 22.0779C11.3264 21.9895 11.5086 21.84 11.6368 21.6482C11.765 21.4563 11.8334 21.2307 11.8334 21C11.8334 20.6906 11.7105 20.3938 11.4917 20.175C11.2729 19.9562 10.9762 19.8333 10.6667 19.8333ZM20.0001 15.1667C19.7693 15.1667 19.5438 15.2351 19.3519 15.3633C19.1601 15.4915 19.0105 15.6737 18.9222 15.8869C18.8339 16.1 18.8108 16.3346 18.8558 16.5609C18.9008 16.7872 19.012 16.9951 19.1751 17.1583C19.3383 17.3214 19.5462 17.4326 19.7725 17.4776C19.9988 17.5226 20.2334 17.4995 20.4465 17.4112C20.6597 17.3229 20.8419 17.1733 20.9701 16.9815C21.0983 16.7896 21.1667 16.5641 21.1667 16.3333C21.1667 16.0239 21.0438 15.7272 20.825 15.5084C20.6062 15.2896 20.3095 15.1667 20.0001 15.1667ZM21.1667 21C21.1667 20.6906 21.0438 20.3938 20.825 20.175C20.6062 19.9562 20.3095 19.8333 20.0001 19.8333H15.3334C15.024 19.8333 14.7273 19.9562 14.5085 20.175C14.2897 20.3938 14.1667 20.6906 14.1667 21C14.1667 21.3094 14.2897 21.6062 14.5085 21.825C14.7273 22.0437 15.024 22.1667 15.3334 22.1667H20.0001C20.3095 22.1667 20.6062 22.0437 20.825 21.825C21.0438 21.6062 21.1667 21.3094 21.1667 21Z" fill="#FEFEFE"/>
</svg>
