<svg width="13" height="6" viewBox="0 0 13 6" fill="none" xmlns="http://www.w3.org/2000/svg">
<path d="M8.3421 5.25759L12.1671 1.43259C12.3223 1.27646 12.4094 1.06525 12.4094 0.845092C12.4094 0.624937 12.3223 0.413727 12.1671 0.257592C12.0896 0.179485 11.9975 0.11749 11.8959 0.0751824C11.7944 0.0328752 11.6854 0.0110931 11.5754 0.0110931C11.4654 0.0110931 11.3565 0.0328752 11.2549 0.0751824C11.1534 0.11749 11.0612 0.179485 10.9838 0.257592L7.1671 4.09093C7.08963 4.16903 6.99746 4.23103 6.89591 4.27334C6.79436 4.31564 6.68544 4.33742 6.57543 4.33742C6.46542 4.33742 6.3565 4.31564 6.25495 4.27334C6.1534 4.23103 6.06123 4.16903 5.98376 4.09093L2.16709 0.257591C2.01128 0.100672 1.79951 0.0120759 1.57837 0.0112945C1.35724 0.0105131 1.14485 0.0976106 0.987928 0.253425C0.831008 0.40924 0.742412 0.621009 0.74163 0.842145C0.740849 1.06328 0.827947 1.27567 0.983762 1.43259L4.80876 5.25759C5.27751 5.72576 5.91293 5.98873 6.57543 5.98873C7.23793 5.98873 7.87334 5.72576 8.3421 5.25759V5.25759Z" fill="#FEFEFE"/>
</svg>
