<svg width="200" height="52" viewBox="0 0 200 52" fill="none" xmlns="http://www.w3.org/2000/svg">
<path d="M23.9652 0.375022L34.2075 6.30478H34.2159L45.5477 12.8662V39.0992L34.6896 45.3861V40.3498L41.1881 36.587V15.3785L32.0361 10.0794L32.0383 10.0754L22.8835 4.77518L13.7292 10.0754L13.7314 10.0794L4.57934 15.3785V36.587L13.7314 41.8861L13.7292 41.89L22.8835 47.1903L24.7609 46.1032V28.3774L34.6896 22.5976V22.5964L34.8676 22.4937L34.9819 22.4274H34.9824L39.0492 20.0813V25.1211V35.3516L34.6896 37.8757V27.6452L29.1205 30.8695V43.5791V48.6054L24.7609 51.13L22.8835 52.2166L11.56 45.6607H11.5516L0.219727 39.0992V12.8662L11.5516 6.30478H11.56L22.8835 -0.25164L23.9652 0.375022Z" fill="#FEFEFE"/>
<path d="M60.5516 6.95166H70.9248V22.0882H72.5167V28.7486H68.4001V26.2166H61.0454V28.7486H56.9288V22.0882H58.5207L60.5516 6.95166ZM62.527 22.0882H66.8082V11.0795H64.0366L62.527 22.0882ZM73.6691 11.0795H84.9209V26.2166H73.6691V11.0795ZM77.5936 14.9327V22.3634H80.9969V14.9327H77.5936ZM86.9517 11.0795H90.8763L93.9503 16.9969L97.0237 11.0795H100.948V26.2166H97.0237V16.9418L93.9503 22.8042L90.8763 16.9418V26.2166H86.9517V14.9327V11.0795ZM109.455 6.95166H122.354V26.2166H118.237V11.0795H113.572V26.2166H109.455V6.95166ZM125.4 11.0795H133.468L135.335 26.2166H131.493L131.191 22.9418H127.678L127.376 26.2166H123.534L125.4 11.0795ZM128.062 19.0886H130.807L130.422 14.9327H128.446L128.062 19.0886ZM136.405 11.0795H147.657V17.1344L145.818 18.6483L147.657 20.1616V26.2166H136.405V14.9327V11.0795ZM143.815 14.3824H140.247V17.1344H142.772L143.815 16.0338V14.3824ZM140.247 20.1616V22.9143H143.815V21.2628L142.772 20.1616H140.247ZM151.307 11.0795H160.39V26.2166H156.466V14.9327H154.545L153.036 26.2166H148.617V22.3634H149.907L151.307 11.0795ZM162.421 11.0795H173.673V26.2166H162.421V11.0795ZM166.346 14.9327V22.3634H169.749V14.9327H166.346ZM175.704 11.0795H186.956V17.1344L185.118 18.6483L186.956 20.1616V26.2166H175.704V14.9327V11.0795ZM183.114 14.3824H179.546V17.1344H182.071L183.114 16.0338V14.3824ZM179.546 20.1616V22.9143H183.114V21.2628L182.071 20.1616H179.546ZM189.81 11.0795H197.878L199.745 26.2166H195.903L195.601 22.9418H192.088L191.786 26.2166H187.944L189.81 11.0795ZM192.472 19.0886H195.216L194.832 14.9327H192.856L192.472 19.0886Z" fill="#FEFEFE"/>
<path d="M57.0353 35.4819H59.406L61.2622 39.056L63.1189 35.4819H65.4891V44.6247H63.1189V39.0229L61.2622 42.5633L59.406 39.0229V44.6247H57.0353V37.8094V35.4819ZM67.2792 35.4819H72.1523L73.2794 44.6247H70.9591L70.7765 42.6464H68.6549L68.4724 44.6247H66.1521L67.2792 35.4819ZM68.8868 40.3194H70.5447L70.3123 37.8094H69.1191L68.8868 40.3194ZM76.2963 41.1836V44.6247H73.9256V37.8094V35.4819H76.2963V38.8567H77.1743L78.5999 35.4819H81.1694L79.0142 39.9039L81.2685 44.6247H78.6995L77.1743 41.1836H76.2963ZM81.7495 35.4819H88.0817V37.6432H84.1202V38.9729H86.0923V41.1337H84.1202V42.4639H88.0817V44.6247H81.7495V37.8094V35.4819ZM88.5459 35.4819H95.2919V37.8094H93.1043V44.6247H90.7341V37.8094H88.5459V35.4819ZM95.9879 35.4819H98.3587V38.8567H100.414V35.4819H102.784V44.6247H100.414V41.1836H98.3587V44.6247H95.9879V37.8094V35.4819ZM104.574 35.4819H109.448L110.575 44.6247H108.254L108.072 42.6464H105.95L105.768 44.6247H103.447L104.574 35.4819ZM106.182 40.3194H107.84L107.608 37.8094H106.414L106.182 40.3194ZM118.017 35.4819V37.8094V44.6247H115.647V41.8985H114.951L113.575 44.6247H110.939L112.547 41.7322H111.271V35.4819H118.017ZM115.647 37.6432H113.641V39.7377H115.647V37.6432ZM123.105 35.4819H125.476L127.332 39.056L129.189 35.4819H131.559V44.6247H129.189V39.0229L127.332 42.5633L125.476 39.0229V44.6247H123.105V37.8094V35.4819ZM133.349 35.4819H138.222L139.349 44.6247H137.029L136.847 42.6464H134.725L134.542 44.6247H132.222L133.349 35.4819ZM134.957 40.3194H136.615L136.382 37.8094H135.189L134.957 40.3194ZM139.996 35.4819H146.742V38.8067H144.372V37.8094H142.366V42.2977H144.372V41.2999H146.742V44.6247H139.996V35.4819ZM147.322 35.4819H154.068V37.8094H151.881V44.6247H149.511V37.8094H147.322V35.4819ZM154.764 35.4819H161.097V37.6432H157.135V38.9729H159.107V41.1337H157.135V42.4639H161.097V44.6247H154.764V37.8094V35.4819ZM162.091 35.4819H168.838V41.9816H164.462V44.6247H162.091V35.4819ZM164.462 37.8094V39.8208H166.467V37.8094H164.462ZM169.981 35.4819H176.728V38.8067H174.357V37.8094H172.352V42.2977H174.357V41.2999H176.728V44.6247H169.981V35.4819ZM180.209 41.1836V44.6247H177.838V37.8094V35.4819H180.209V38.8567H181.087L182.512 35.4819H185.082L182.927 39.9039L185.181 44.6247H182.612L181.087 41.1836H180.209ZM186.226 35.4819H191.099L192.226 44.6247H189.906L189.723 42.6464H187.601L187.419 44.6247H185.099L186.226 35.4819ZM187.833 40.3194H189.491L189.259 37.8094H188.066L187.833 40.3194ZM199.668 35.4819V37.8094V44.6247H197.298V41.8985H196.602L195.226 44.6247H192.59L194.199 41.7322H192.922V35.4819H199.668ZM197.298 37.6432H195.292V39.7377H197.298V37.6432Z" fill="#FEFEFE"/>
</svg>
