<svg width="28" height="28" viewBox="0 0 28 28" fill="none" xmlns="http://www.w3.org/2000/svg">
<path d="M1.55659 24.8881L0.109981 24.3125C0.00661692 24.5726 -0.0246657 24.8558 0.0194301 25.1321C0.063526 25.4085 0.181367 25.6679 0.360531 25.8829C0.539695 26.0979 0.773545 26.2605 1.03743 26.3537C1.30132 26.4469 1.58546 26.4672 1.85991 26.4125L1.55659 24.8881ZM8.87675 23.4321L9.61405 22.0618L9.12096 21.7973L8.57343 21.9062L8.87675 23.4321ZM4.08271 18.537L5.52932 19.1125L5.78287 18.4686L5.47799 17.8479L4.08271 18.537ZM24.889 13.9996C24.889 19.0488 20.4512 23.3326 14.7316 23.3326V26.4436C21.9507 26.4436 28 20.9776 28 13.9996H24.889ZM4.57581 13.9996C4.57581 8.95049 9.01519 4.66665 14.7332 4.66665V1.55566C7.51413 1.55566 1.46326 7.02167 1.46326 13.9996H4.57581ZM14.7332 4.66665C20.4512 4.66665 24.889 8.95049 24.889 13.9996H28C28 7.02167 21.9522 1.55566 14.7332 1.55566V4.66665ZM14.7316 23.3326C12.8573 23.3326 11.112 22.8659 9.61405 22.0618L8.13944 24.801C10.1668 25.8878 12.4314 26.4523 14.7316 26.4436V23.3326ZM1.85991 26.4125L9.18007 24.9565L8.57343 21.9062L1.25327 23.3621L1.85991 26.414V26.4125ZM5.47799 17.8479C4.88582 16.6514 4.57816 15.3347 4.57581 13.9996H1.46326C1.46326 15.8662 1.90191 17.6364 2.68588 19.2261L5.47799 17.8479ZM2.63766 17.9615L0.109981 24.3141L3.00009 25.4621L5.52621 19.111L2.6361 17.9615H2.63766Z" fill="#151515"/>
<path d="M9.33406 15.5553C10.1931 15.5553 10.8896 14.8589 10.8896 13.9998C10.8896 13.1408 10.1931 12.4443 9.33406 12.4443C8.47498 12.4443 7.77856 13.1408 7.77856 13.9998C7.77856 14.8589 8.47498 15.5553 9.33406 15.5553Z" fill="#151515"/>
<path d="M14.7782 15.5553C15.6372 15.5553 16.3336 14.8589 16.3336 13.9998C16.3336 13.1408 15.6372 12.4443 14.7782 12.4443C13.9191 12.4443 13.2227 13.1408 13.2227 13.9998C13.2227 14.8589 13.9191 15.5553 14.7782 15.5553Z" fill="#151515"/>
<path d="M20.2225 15.5553C21.0816 15.5553 21.778 14.8589 21.778 13.9998C21.778 13.1408 21.0816 12.4443 20.2225 12.4443C19.3634 12.4443 18.667 13.1408 18.667 13.9998C18.667 14.8589 19.3634 15.5553 20.2225 15.5553Z" fill="#151515"/>
</svg>
