<svg width="41" height="40" viewBox="0 0 41 40" fill="none" xmlns="http://www.w3.org/2000/svg">
<g clip-path="url(#clip0_337_906)">
<path d="M31.9167 0H8.58333C6.37401 0.00264643 4.25593 0.88147 2.6937 2.4437C1.13147 4.00593 0.252646 6.12401 0.25 8.33333L0.25 31.6667C0.252646 33.876 1.13147 35.9941 2.6937 37.5563C4.25593 39.1185 6.37401 39.9974 8.58333 40H31.9167C34.126 39.9974 36.2441 39.1185 37.8063 37.5563C39.3685 35.9941 40.2474 33.876 40.25 31.6667V8.33333C40.2474 6.12401 39.3685 4.00593 37.8063 2.4437C36.2441 0.88147 34.126 0.00264643 31.9167 0V0ZM36.9167 31.6667C36.9167 32.9927 36.3899 34.2645 35.4522 35.2022C34.5145 36.1399 33.2427 36.6667 31.9167 36.6667H8.58333C7.25725 36.6667 5.98548 36.1399 5.0478 35.2022C4.11012 34.2645 3.58333 32.9927 3.58333 31.6667V8.33333C3.58333 7.00725 4.11012 5.73548 5.0478 4.7978C5.98548 3.86012 7.25725 3.33333 8.58333 3.33333H31.9167C33.2427 3.33333 34.5145 3.86012 35.4522 4.7978C36.3899 5.73548 36.9167 7.00725 36.9167 8.33333V31.6667Z" fill="#FEFEFE"/>
<path d="M15.8047 26.5317L9.27299 20.0001C8.96044 19.6876 8.5366 19.5121 8.09466 19.5121C7.65271 19.5121 7.22887 19.6876 6.91632 20.0001C6.60387 20.3126 6.42834 20.7365 6.42834 21.1784C6.42834 21.6203 6.60387 22.0442 6.91632 22.3567L13.448 28.8884C13.7575 29.1981 14.1251 29.4437 14.5296 29.6113C14.9341 29.7789 15.3676 29.8652 15.8055 29.8652C16.2433 29.8652 16.6769 29.7789 17.0814 29.6113C17.4859 29.4437 17.8534 29.1981 18.163 28.8884L33.583 13.4684C33.8954 13.1559 34.071 12.732 34.071 12.2901C34.071 11.8481 33.8954 11.4243 33.583 11.1118C33.2704 10.7993 32.8466 10.6238 32.4047 10.6238C31.9627 10.6238 31.5389 10.7993 31.2263 11.1118L15.8047 26.5317Z" fill="#FEFEFE"/>
</g>
<defs>
<clipPath id="clip0_337_906">
<rect width="40" height="40" fill="white" transform="translate(0.25)"/>
</clipPath>
</defs>
</svg>
