<svg width="41" height="40" viewBox="0 0 41 40" fill="none" xmlns="http://www.w3.org/2000/svg">
<path d="M40.25 20C40.25 20.442 40.0744 20.8659 39.7618 21.1785C39.4493 21.4911 39.0254 21.6667 38.5833 21.6667C38.1413 21.6667 37.7174 21.4911 37.4048 21.1785C37.0923 20.8659 36.9167 20.442 36.9167 20C36.9118 15.5812 35.1543 11.3448 32.0298 8.22025C28.9052 5.09569 24.6688 3.33819 20.25 3.33333C19.808 3.33333 19.384 3.15774 19.0715 2.84518C18.7589 2.53262 18.5833 2.10869 18.5833 1.66667C18.5833 1.22464 18.7589 0.800716 19.0715 0.488155C19.384 0.175595 19.808 0 20.25 0C25.5526 0.00573514 30.6363 2.11471 34.3858 5.8642C38.1353 9.61368 40.2443 14.6974 40.25 20ZM26.9167 21.6667C27.3587 21.6667 27.7826 21.4911 28.0952 21.1785C28.4077 20.8659 28.5833 20.442 28.5833 20C28.5833 19.558 28.4077 19.134 28.0952 18.8215C27.7826 18.5089 27.3587 18.3333 26.9167 18.3333H23.1217C22.8312 17.834 22.416 17.4188 21.9167 17.1283V11.6667C21.9167 11.2246 21.7411 10.8007 21.4285 10.4882C21.1159 10.1756 20.692 10 20.25 10C19.808 10 19.384 10.1756 19.0715 10.4882C18.7589 10.8007 18.5833 11.2246 18.5833 11.6667V17.1283C18.1413 17.3829 17.7638 17.7357 17.48 18.1596C17.1962 18.5835 17.0139 19.067 16.947 19.5727C16.8801 20.0783 16.9305 20.5926 17.0944 21.0757C17.2582 21.5588 17.531 21.9976 17.8917 22.3583C18.2524 22.719 18.6912 22.9918 19.1743 23.1556C19.6574 23.3195 20.1717 23.3699 20.6773 23.303C21.183 23.2361 21.6665 23.0538 22.0904 22.77C22.5143 22.4862 22.8671 22.1087 23.1217 21.6667H26.9167ZM3.295 11.3067C2.96537 11.3067 2.64313 11.4044 2.36905 11.5876C2.09497 11.7707 1.88135 12.031 1.7552 12.3355C1.62906 12.6401 1.59605 12.9752 1.66036 13.2985C1.72467 13.6218 1.8834 13.9188 2.11649 14.1518C2.34958 14.3849 2.64655 14.5437 2.96985 14.608C3.29315 14.6723 3.62826 14.6393 3.93281 14.5131C4.23735 14.387 4.49765 14.1734 4.68078 13.8993C4.86392 13.6252 4.96167 13.303 4.96167 12.9733C4.96167 12.5313 4.78607 12.1074 4.47351 11.7948C4.16095 11.4823 3.73703 11.3067 3.295 11.3067ZM3.58333 20C3.58333 19.6704 3.48559 19.3481 3.30245 19.074C3.11931 18.8 2.85902 18.5863 2.55447 18.4602C2.24993 18.3341 1.91482 18.301 1.59152 18.3654C1.26822 18.4297 0.971244 18.5884 0.738156 18.8215C0.505069 19.0546 0.346334 19.3515 0.282025 19.6748C0.217717 19.9981 0.250722 20.3333 0.376868 20.6378C0.503014 20.9423 0.716635 21.2026 0.990717 21.3858C1.2648 21.5689 1.58703 21.6667 1.91667 21.6667C2.35869 21.6667 2.78262 21.4911 3.09518 21.1785C3.40774 20.8659 3.58333 20.442 3.58333 20ZM20.25 36.6667C19.9204 36.6667 19.5981 36.7644 19.324 36.9475C19.05 37.1307 18.8363 37.391 18.7102 37.6955C18.5841 38.0001 18.551 38.3352 18.6154 38.6585C18.6797 38.9818 18.8384 39.2788 19.0715 39.5118C19.3046 39.7449 19.6015 39.9037 19.9248 39.968C20.2481 40.0323 20.5833 39.9993 20.8878 39.8731C21.1923 39.747 21.4526 39.5334 21.6358 39.2593C21.8189 38.9852 21.9167 38.663 21.9167 38.3333C21.9167 37.8913 21.7411 37.4674 21.4285 37.1548C21.1159 36.8423 20.692 36.6667 20.25 36.6667ZM7.285 5.345C6.95537 5.345 6.63313 5.44275 6.35905 5.62588C6.08497 5.80902 5.87135 6.06932 5.7452 6.37386C5.61906 6.6784 5.58605 7.01352 5.65036 7.33682C5.71467 7.66012 5.8734 7.95709 6.10649 8.19018C6.33958 8.42327 6.63655 8.582 6.95985 8.64631C7.28315 8.71062 7.61826 8.67761 7.92281 8.55147C8.22735 8.42532 8.48765 8.2117 8.67078 7.93762C8.85392 7.66354 8.95167 7.3413 8.95167 7.01167C8.95167 6.56964 8.77607 6.14572 8.46351 5.83316C8.15095 5.52059 7.72703 5.345 7.285 5.345ZM13.215 1.40167C12.8854 1.40167 12.5631 1.49942 12.2891 1.68255C12.015 1.86569 11.8013 2.12598 11.6752 2.43053C11.5491 2.73507 11.5161 3.07018 11.5804 3.39348C11.6447 3.71679 11.8034 4.01376 12.0365 4.24684C12.2696 4.47993 12.5665 4.63867 12.8898 4.70298C13.2132 4.76728 13.5483 4.73428 13.8528 4.60813C14.1573 4.48199 14.4176 4.26837 14.6008 3.99428C14.7839 3.7202 14.8817 3.39797 14.8817 3.06833C14.8817 2.62631 14.7061 2.20238 14.3935 1.88982C14.081 1.57726 13.657 1.40167 13.215 1.40167ZM3.295 25.36C2.96537 25.36 2.64313 25.4577 2.36905 25.6409C2.09497 25.824 1.88135 26.0843 1.7552 26.3889C1.62906 26.6934 1.59605 27.0285 1.66036 27.3518C1.72467 27.6751 1.8834 27.9721 2.11649 28.2052C2.34958 28.4383 2.64655 28.597 2.96985 28.6613C3.29315 28.7256 3.62826 28.6926 3.93281 28.5665C4.23735 28.4403 4.49765 28.2267 4.68078 27.9526C4.86392 27.6785 4.96167 27.3563 4.96167 27.0267C4.96167 26.5846 4.78607 26.1607 4.47351 25.8482C4.16095 25.5356 3.73703 25.36 3.295 25.36ZM7.285 31.3217C6.95537 31.3217 6.63313 31.4194 6.35905 31.6026C6.08497 31.7857 5.87135 32.046 5.7452 32.3505C5.61906 32.6551 5.58605 32.9902 5.65036 33.3135C5.71467 33.6368 5.8734 33.9338 6.10649 34.1668C6.33958 34.3999 6.63655 34.5587 6.95985 34.623C7.28315 34.6873 7.61826 34.6543 7.92281 34.5281C8.22735 34.402 8.48765 34.1884 8.67078 33.9143C8.85392 33.6402 8.95167 33.318 8.95167 32.9883C8.95167 32.5463 8.77607 32.1224 8.46351 31.8098C8.15095 31.4973 7.72703 31.3217 7.285 31.3217ZM13.215 35.265C12.8854 35.265 12.5631 35.3627 12.2891 35.5459C12.015 35.729 11.8013 35.9893 11.6752 36.2939C11.5491 36.5984 11.5161 36.9335 11.5804 37.2568C11.6447 37.5801 11.8034 37.8771 12.0365 38.1102C12.2696 38.3433 12.5665 38.502 12.8898 38.5663C13.2132 38.6306 13.5483 38.5976 13.8528 38.4715C14.1573 38.3453 14.4176 38.1317 14.6008 37.8576C14.7839 37.5835 14.8817 37.2613 14.8817 36.9317C14.8817 36.4896 14.7061 36.0657 14.3935 35.7532C14.081 35.4406 13.657 35.265 13.215 35.265ZM37.205 25.36C36.8754 25.36 36.5531 25.4577 36.279 25.6409C36.005 25.824 35.7913 26.0843 35.6652 26.3889C35.5391 26.6934 35.5061 27.0285 35.5704 27.3518C35.6347 27.6751 35.7934 27.9721 36.0265 28.2052C36.2596 28.4383 36.5565 28.597 36.8798 28.6613C37.2031 28.7256 37.5383 28.6926 37.8428 28.5665C38.1473 28.4403 38.4076 28.2267 38.5908 27.9526C38.7739 27.6785 38.8717 27.3563 38.8717 27.0267C38.8717 26.5846 38.6961 26.1607 38.3835 25.8482C38.0709 25.5356 37.647 25.36 37.205 25.36ZM33.215 31.3217C32.8854 31.3217 32.5631 31.4194 32.2891 31.6026C32.015 31.7857 31.8013 32.046 31.6752 32.3505C31.5491 32.6551 31.516 32.9902 31.5804 33.3135C31.6447 33.6368 31.8034 33.9338 32.0365 34.1668C32.2696 34.3999 32.5665 34.5587 32.8899 34.623C33.2132 34.6873 33.5483 34.6543 33.8528 34.5281C34.1573 34.402 34.4176 34.1884 34.6008 33.9143C34.7839 33.6402 34.8817 33.318 34.8817 32.9883C34.8817 32.5463 34.7061 32.1224 34.3935 31.8098C34.081 31.4973 33.657 31.3217 33.215 31.3217ZM27.285 35.265C26.9554 35.265 26.6331 35.3627 26.359 35.5459C26.085 35.729 25.8713 35.9893 25.7452 36.2939C25.6191 36.5984 25.586 36.9335 25.6504 37.2568C25.7147 37.5801 25.8734 37.8771 26.1065 38.1102C26.3396 38.3433 26.6365 38.502 26.9598 38.5663C27.2831 38.6306 27.6183 38.5976 27.9228 38.4715C28.2273 38.3453 28.4876 38.1317 28.6708 37.8576C28.8539 37.5835 28.9517 37.2613 28.9517 36.9317C28.9517 36.4896 28.7761 36.0657 28.4635 35.7532C28.1509 35.4406 27.727 35.265 27.285 35.265Z" fill="#FEFEFE"/>
</svg>
