<svg width="38" height="40" viewBox="0 0 38 40" fill="none" xmlns="http://www.w3.org/2000/svg">
<path d="M33.4616 7.02808L23.4166 1.22808C22.1489 0.499116 20.7122 0.115479 19.2499 0.115479C17.7876 0.115479 16.3509 0.499116 15.0832 1.22808L5.03825 7.02808C3.77304 7.76127 2.72237 8.81362 1.9912 10.08C1.26004 11.3464 0.873975 12.7824 0.871582 14.2447V25.8447C0.874019 27.3073 1.26009 28.7435 1.99123 30.0102C2.72238 31.2768 3.77302 32.3295 5.03825 33.0631L15.0832 38.8614C16.3507 39.5909 17.7875 39.9748 19.2499 39.9748C20.7123 39.9748 22.1491 39.5909 23.4166 38.8614L33.4616 33.0631C34.7268 32.3295 35.7775 31.2768 36.5086 30.0102C37.2397 28.7435 37.6258 27.3073 37.6283 25.8447V14.2447C37.6259 12.7824 37.2398 11.3464 36.5086 10.08C35.7775 8.81362 34.7268 7.76127 33.4616 7.02808ZM16.7499 4.11641C17.51 3.67757 18.3722 3.44654 19.2499 3.44654C20.1276 3.44654 20.9898 3.67757 21.7499 4.11641L31.7949 9.91475C32.0496 10.0757 32.289 10.2599 32.5099 10.4647L22.1882 16.4231C21.2947 16.9382 20.2814 17.2094 19.2499 17.2094C18.2185 17.2094 17.2052 16.9382 16.3116 16.4231L5.98992 10.4647C6.21086 10.2599 6.4502 10.0757 6.70492 9.91475L16.7499 4.11641ZM6.70492 30.1747C5.94526 29.7346 5.3145 29.1027 4.87577 28.3422C4.43703 27.5817 4.2057 26.7194 4.20492 25.8414V14.2447C4.21649 13.9445 4.25611 13.646 4.32325 13.3531L14.6449 19.3114C15.5565 19.8299 16.5504 20.1879 17.5832 20.3697V36.3181C17.2954 36.2299 17.0164 36.115 16.7499 35.9747L6.70492 30.1747ZM34.2949 25.8414C34.2941 26.7194 34.0628 27.5817 33.6241 28.3422C33.1853 29.1027 32.5546 29.7346 31.7949 30.1747L21.7499 35.9747C21.4835 36.115 21.2045 36.2299 20.9166 36.3181V20.3697C21.9494 20.1879 22.9433 19.8299 23.8549 19.3114L34.1766 13.3531C34.2437 13.646 34.2833 13.9445 34.2949 14.2447V25.8414Z" fill="#FEFEFE"/>
</svg>
