<svg width="32" height="40" viewBox="0 0 32 40" fill="none" xmlns="http://www.w3.org/2000/svg">
<path d="M13.5833 20C14.0254 20 14.4493 20.1756 14.7618 20.4882C15.0744 20.8007 15.25 21.2246 15.25 21.6667C15.25 22.1087 15.0744 22.5326 14.7618 22.8452C14.4493 23.1577 14.0254 23.3333 13.5833 23.3333H8.58333C8.14131 23.3333 7.71738 23.1577 7.40482 22.8452C7.09226 22.5326 6.91667 22.1087 6.91667 21.6667C6.91667 21.2246 7.09226 20.8007 7.40482 20.4882C7.71738 20.1756 8.14131 20 8.58333 20H13.5833ZM23.5833 15C23.5833 14.558 23.4077 14.134 23.0952 13.8215C22.7826 13.5089 22.3587 13.3333 21.9167 13.3333H8.58333C8.14131 13.3333 7.71738 13.5089 7.40482 13.8215C7.09226 14.134 6.91667 14.558 6.91667 15C6.91667 15.442 7.09226 15.8659 7.40482 16.1785C7.71738 16.4911 8.14131 16.6667 8.58333 16.6667H21.9167C22.3587 16.6667 22.7826 16.4911 23.0952 16.1785C23.4077 15.8659 23.5833 15.442 23.5833 15ZM8.58333 10H21.9167C22.3587 10 22.7826 9.8244 23.0952 9.51184C23.4077 9.19928 23.5833 8.77536 23.5833 8.33333C23.5833 7.89131 23.4077 7.46738 23.0952 7.15482C22.7826 6.84226 22.3587 6.66667 21.9167 6.66667H8.58333C8.14131 6.66667 7.71738 6.84226 7.40482 7.15482C7.09226 7.46738 6.91667 7.89131 6.91667 8.33333C6.91667 8.77536 7.09226 9.19928 7.40482 9.51184C7.71738 9.8244 8.14131 10 8.58333 10ZM28.5833 32.4067V38.795C28.5835 39.0328 28.513 39.2652 28.381 39.4629C28.249 39.6606 28.0613 39.8147 27.8416 39.9057C27.622 39.9967 27.3803 40.0205 27.1471 39.9741C26.9139 39.9277 26.6997 39.8132 26.5317 39.645L25.25 38.365L23.9683 39.645C23.8003 39.8132 23.5861 39.9277 23.3529 39.9741C23.1198 40.0205 22.878 39.9967 22.6584 39.9057C22.4387 39.8147 22.251 39.6606 22.119 39.4629C21.987 39.2652 21.9166 39.0328 21.9167 38.795V32.4067C20.6456 31.6764 19.6517 30.5462 19.0897 29.1923C18.5277 27.8383 18.4293 26.3365 18.8097 24.9208C19.19 23.505 20.0279 22.2548 21.1927 21.3648C22.3576 20.4748 23.7841 19.9949 25.25 20C25.8134 20.007 26.3736 20.0866 26.9167 20.2367V8.33333C26.9167 7.00725 26.3899 5.73548 25.4522 4.7978C24.5145 3.86012 23.2428 3.33333 21.9167 3.33333H8.58333C7.25725 3.33333 5.98548 3.86012 5.0478 4.7978C4.11012 5.73548 3.58333 7.00725 3.58333 8.33333V28.3333C3.58333 29.6594 4.11012 30.9312 5.0478 31.8689C5.98548 32.8065 7.25725 33.3333 8.58333 33.3333H16.9167C17.3587 33.3333 17.7826 33.5089 18.0952 33.8215C18.4077 34.134 18.5833 34.558 18.5833 35C18.5833 35.442 18.4077 35.866 18.0952 36.1785C17.7826 36.4911 17.3587 36.6667 16.9167 36.6667H8.58333C6.37401 36.664 4.25593 35.7852 2.6937 34.223C1.13147 32.6607 0.252646 30.5427 0.25 28.3333V8.33333C0.252646 6.12401 1.13147 4.00593 2.6937 2.4437C4.25593 0.88147 6.37401 0.00264643 8.58333 0L21.9167 0C24.126 0.00264643 26.2441 0.88147 27.8063 2.4437C29.3685 4.00593 30.2474 6.12401 30.25 8.33333V22.3033C30.9029 23.0365 31.3835 23.9064 31.6567 24.8493C31.9299 25.7922 31.9888 26.7843 31.829 27.7529C31.6692 28.7216 31.2948 29.6422 30.7332 30.4474C30.1716 31.2526 29.4371 31.922 28.5833 32.4067ZM28.5833 26.6667C28.5833 26.0074 28.3878 25.3629 28.0216 24.8148C27.6553 24.2666 27.1347 23.8394 26.5256 23.5871C25.9165 23.3348 25.2463 23.2688 24.5997 23.3974C23.9531 23.526 23.3592 23.8435 22.893 24.3096C22.4268 24.7758 22.1093 25.3698 21.9807 26.0164C21.8521 26.663 21.9181 27.3332 22.1704 27.9423C22.4227 28.5514 22.8499 29.072 23.3981 29.4382C23.9463 29.8045 24.5907 30 25.25 30C26.1341 30 26.9819 29.6488 27.607 29.0237C28.2321 28.3986 28.5833 27.5507 28.5833 26.6667Z" fill="#FEFEFE"/>
</svg>
