<svg width="12" height="9" viewBox="0 0 12 9" fill="none" xmlns="http://www.w3.org/2000/svg">
<path d="M11.1594 0.215504L4.24994 7.1245C4.20348 7.17114 4.14828 7.20815 4.08749 7.2334C4.02669 7.25865 3.96152 7.27165 3.89569 7.27165C3.82986 7.27165 3.76468 7.25865 3.70389 7.2334C3.6431 7.20815 3.58789 7.17114 3.54144 7.1245L0.869439 4.45C0.822984 4.40337 0.767777 4.36636 0.706986 4.34111C0.646194 4.31586 0.581015 4.30286 0.515189 4.30286C0.449362 4.30286 0.384183 4.31586 0.323391 4.34111C0.2626 4.36636 0.207393 4.40337 0.160939 4.45C0.1143 4.49646 0.0772939 4.55167 0.0520431 4.61246C0.0267923 4.67325 0.0137939 4.73843 0.0137939 4.80425C0.0137939 4.87008 0.0267923 4.93526 0.0520431 4.99605C0.0772939 5.05684 0.1143 5.11205 0.160939 5.1585L2.83394 7.831C3.11591 8.11245 3.49804 8.27053 3.89644 8.27053C4.29484 8.27053 4.67696 8.11245 4.95894 7.831L11.8679 0.923504C11.9145 0.877058 11.9514 0.821883 11.9767 0.761138C12.0019 0.700393 12.0148 0.635271 12.0148 0.569504C12.0148 0.503737 12.0019 0.438615 11.9767 0.37787C11.9514 0.317125 11.9145 0.26195 11.8679 0.215504C11.8215 0.168866 11.7663 0.131859 11.7055 0.106609C11.6447 0.0813578 11.5795 0.0683594 11.5137 0.0683594C11.4479 0.0683594 11.3827 0.0813578 11.3219 0.106609C11.2611 0.131859 11.2059 0.168866 11.1594 0.215504Z" fill="#FEFEFE"/>
</svg>
