<svg width="16" height="16" viewBox="0 0 16 16" fill="none" xmlns="http://www.w3.org/2000/svg">
<path d="M15.3 6.39947C15.175 6.27449 15.0055 6.20428 14.8287 6.20428C14.6519 6.20428 14.4824 6.27449 14.3573 6.39947L7.09602 13.6921C6.78649 14.0017 6.41902 14.2473 6.01459 14.4148C5.61016 14.5824 5.17668 14.6686 4.73892 14.6687C3.85481 14.6687 3.00689 14.3176 2.38168 13.6925C1.75648 13.0674 1.40521 12.2195 1.40515 11.3354C1.40508 10.4513 1.75623 9.60334 2.38135 8.97814L9.41402 1.91681C9.79008 1.54673 10.2971 1.34025 10.8247 1.34234C11.3523 1.34442 11.8578 1.55491 12.2309 1.92794C12.604 2.30098 12.8146 2.80634 12.8168 3.33394C12.819 3.86155 12.6127 4.36866 12.2427 4.74481L5.21002 11.8061C5.08318 11.9276 4.91432 11.9955 4.73868 11.9955C4.56304 11.9955 4.39418 11.9276 4.26735 11.8061C4.14237 11.6811 4.07216 11.5116 4.07216 11.3348C4.07216 11.158 4.14237 10.9885 4.26735 10.8635L10.5287 4.57347C10.6501 4.44774 10.7173 4.27934 10.7158 4.10454C10.7143 3.92974 10.6442 3.76253 10.5206 3.63893C10.397 3.51532 10.2297 3.44521 10.0549 3.44369C9.88015 3.44217 9.71175 3.50937 9.58602 3.63081L3.32468 9.92081C3.13893 10.1065 2.99158 10.327 2.89105 10.5697C2.79052 10.8124 2.73878 11.0725 2.73878 11.3351C2.73878 11.5978 2.79052 11.8579 2.89105 12.1006C2.99158 12.3433 3.13893 12.5638 3.32468 12.7495C3.70576 13.1131 4.21227 13.316 4.73902 13.316C5.26576 13.316 5.77227 13.1131 6.15335 12.7495L13.1853 5.68747C13.7973 5.05967 14.1374 4.21604 14.1317 3.33932C14.1261 2.4626 13.7753 1.62339 13.1553 1.00349C12.5353 0.383584 11.6961 0.0329026 10.8194 0.0274093C9.94265 0.021916 9.09906 0.362053 8.47135 0.974139L1.43868 8.03547C0.563468 8.91069 0.0717773 10.0977 0.0717773 11.3355C0.0717774 12.5732 0.563468 13.7603 1.43868 14.6355C2.3139 15.5107 3.50094 16.0024 4.73868 16.0024C5.97642 16.0024 7.16347 15.5107 8.03868 14.6355L15.3 7.34481C15.3623 7.28285 15.4117 7.2092 15.4455 7.12809C15.4792 7.04697 15.4965 6.95999 15.4965 6.87214C15.4965 6.78429 15.4792 6.69731 15.4455 6.61619C15.4117 6.53507 15.3623 6.46142 15.3 6.39947V6.39947Z" fill="white"/>
</svg>
