<svg width="16" height="16" viewBox="0 0 16 16" fill="none" xmlns="http://www.w3.org/2000/svg">
<g clip-path="url(#clip0_365_1104)">
<path d="M12.6667 0H3.33333C2.4496 0.00105857 1.60237 0.352588 0.97748 0.97748C0.352588 1.60237 0.00105857 2.4496 0 3.33333L0 12.6667C0.00105857 13.5504 0.352588 14.3976 0.97748 15.0225C1.60237 15.6474 2.4496 15.9989 3.33333 16H12.6667C13.5504 15.9989 14.3976 15.6474 15.0225 15.0225C15.6474 14.3976 15.9989 13.5504 16 12.6667V3.33333C15.9989 2.4496 15.6474 1.60237 15.0225 0.97748C14.3976 0.352588 13.5504 0.00105857 12.6667 0V0ZM4.66667 14.6667V14C4.66667 13.1159 5.01786 12.2681 5.64298 11.643C6.2681 11.0179 7.11595 10.6667 8 10.6667C8.88406 10.6667 9.7319 11.0179 10.357 11.643C10.9821 12.2681 11.3333 13.1159 11.3333 14V14.6667H4.66667ZM14.6667 12.6667C14.6667 13.1971 14.456 13.7058 14.0809 14.0809C13.7058 14.456 13.1971 14.6667 12.6667 14.6667V14C12.6667 12.7623 12.175 11.5753 11.2998 10.7002C10.4247 9.825 9.23768 9.33333 8 9.33333C6.76232 9.33333 5.57534 9.825 4.70017 10.7002C3.825 11.5753 3.33333 12.7623 3.33333 14V14.6667C2.8029 14.6667 2.29419 14.456 1.91912 14.0809C1.54405 13.7058 1.33333 13.1971 1.33333 12.6667V3.33333C1.33333 2.8029 1.54405 2.29419 1.91912 1.91912C2.29419 1.54405 2.8029 1.33333 3.33333 1.33333H12.6667C13.1971 1.33333 13.7058 1.54405 14.0809 1.91912C14.456 2.29419 14.6667 2.8029 14.6667 3.33333V12.6667Z" fill="white"/>
<path d="M8.00016 2.66699C7.47275 2.66699 6.95717 2.82339 6.51864 3.11641C6.08011 3.40942 5.73832 3.8259 5.53649 4.31317C5.33465 4.80044 5.28184 5.33662 5.38474 5.8539C5.48763 6.37118 5.74161 6.84634 6.11455 7.21928C6.48749 7.59222 6.96264 7.84619 7.47992 7.94909C7.99721 8.05198 8.53338 7.99917 9.02065 7.79734C9.50792 7.5955 9.9244 7.25371 10.2174 6.81518C10.5104 6.37665 10.6668 5.86108 10.6668 5.33366C10.6668 4.62641 10.3859 3.94814 9.88578 3.44804C9.38569 2.94794 8.70741 2.66699 8.00016 2.66699ZM8.00016 6.66699C7.73646 6.66699 7.47867 6.58879 7.2594 6.44229C7.04014 6.29578 6.86924 6.08754 6.76832 5.8439C6.66741 5.60027 6.641 5.33218 6.69245 5.07354C6.7439 4.8149 6.87089 4.57732 7.05736 4.39085C7.24383 4.20438 7.4814 4.07739 7.74004 4.02595C7.99868 3.9745 8.26677 4.0009 8.51041 4.10182C8.75404 4.20274 8.96228 4.37363 9.10879 4.5929C9.2553 4.81216 9.3335 5.06995 9.3335 5.33366C9.3335 5.68728 9.19302 6.02642 8.94297 6.27647C8.69292 6.52652 8.35379 6.66699 8.00016 6.66699Z" fill="white"/>
</g>
<defs>
<clipPath id="clip0_365_1104">
<rect width="16" height="16" fill="white"/>
</clipPath>
</defs>
</svg>
