<svg width="16" height="16" viewBox="0 0 16 16" fill="none" xmlns="http://www.w3.org/2000/svg">
<path d="M8.66648 0.666755C8.66648 0.489944 8.73672 0.320375 8.86175 0.19535C8.98677 0.070326 9.15634 8.80828e-05 9.33315 8.80828e-05C11.1007 0.00202915 12.7952 0.705031 14.045 1.95485C15.2949 3.20468 15.9979 4.89924 15.9998 6.66676C15.9998 6.84357 15.9296 7.01314 15.8045 7.13816C15.6795 7.26318 15.51 7.33342 15.3331 7.33342C15.1563 7.33342 14.9868 7.26318 14.8617 7.13816C14.7367 7.01314 14.6665 6.84357 14.6665 6.66676C14.6649 5.25276 14.1025 3.89712 13.1026 2.89727C12.1028 1.89742 10.7471 1.33501 9.33315 1.33342C9.15634 1.33342 8.98677 1.26318 8.86175 1.13816C8.73672 1.01314 8.66648 0.843566 8.66648 0.666755V0.666755ZM9.33315 4.00009C10.0404 4.00009 10.7187 4.28104 11.2188 4.78114C11.7189 5.28123 11.9998 5.95951 11.9998 6.66676C11.9998 6.84357 12.07 7.01314 12.1951 7.13816C12.3201 7.26318 12.4897 7.33342 12.6665 7.33342C12.8433 7.33342 13.0129 7.26318 13.1379 7.13816C13.2629 7.01314 13.3331 6.84357 13.3331 6.66676C13.3321 5.60621 12.9103 4.58941 12.1604 3.8395C11.4105 3.08958 10.3937 2.66781 9.33315 2.66676C9.15634 2.66676 8.98677 2.73699 8.86175 2.86202C8.73672 2.98704 8.66648 3.15661 8.66648 3.33342C8.66648 3.51023 8.73672 3.6798 8.86175 3.80483C8.98677 3.92985 9.15634 4.00009 9.33315 4.00009V4.00009ZM15.3951 11.1594C15.7815 11.5468 15.9984 12.0716 15.9984 12.6188C15.9984 13.1659 15.7815 13.6907 15.3951 14.0781L14.7885 14.7774C9.32848 20.0048 -3.95817 6.72142 1.18849 1.24409L1.95516 0.577421C2.343 0.201873 2.86311 -0.0058792 3.40296 -0.000888689C3.94281 0.00410182 4.45899 0.221434 4.83982 0.604088C4.86049 0.624755 6.09582 2.22942 6.09582 2.22942C6.46237 2.61451 6.66642 3.12604 6.66555 3.65769C6.66468 4.18934 6.45896 4.7002 6.09115 5.08409L5.31915 6.05476C5.74639 7.09283 6.37453 8.03625 7.16749 8.83082C7.96045 9.62538 8.90261 10.2554 9.93982 10.6848L10.9165 9.90809C11.3004 9.54057 11.8112 9.33509 12.3427 9.33434C12.8742 9.3336 13.3855 9.53764 13.7705 9.90409C13.7705 9.90409 15.3745 11.1388 15.3951 11.1594ZM14.4778 12.1288C14.4778 12.1288 12.8825 10.9014 12.8618 10.8808C12.7245 10.7446 12.5389 10.6682 12.3455 10.6682C12.1521 10.6682 11.9665 10.7446 11.8291 10.8808C11.8111 10.8994 10.4665 11.9708 10.4665 11.9708C10.3759 12.0429 10.268 12.0902 10.1536 12.1079C10.0391 12.1257 9.92203 12.1133 9.81382 12.0721C8.47012 11.5718 7.24964 10.7886 6.23504 9.77548C5.22044 8.76237 4.43542 7.54304 3.93316 6.20009C3.88862 6.09039 3.8741 5.97081 3.89109 5.85365C3.90808 5.73648 3.95597 5.62595 4.02982 5.53342C4.02982 5.53342 5.10115 4.18809 5.11915 4.17076C5.25533 4.03341 5.33174 3.84783 5.33174 3.65442C5.33174 3.46101 5.25533 3.27543 5.11915 3.13809C5.09849 3.11809 3.87116 1.52142 3.87116 1.52142C3.73176 1.39643 3.54983 1.32949 3.36266 1.33432C3.17549 1.33915 2.99725 1.4154 2.86449 1.54742L2.09783 2.21409C-1.6635 6.73676 9.85048 17.6121 13.8138 13.8668L14.4211 13.1668C14.5635 13.0349 14.6489 12.8529 14.6595 12.6592C14.6701 12.4655 14.6049 12.2753 14.4778 12.1288V12.1288Z" fill="white"/>
</svg>
